<svg width="179" height="70" viewBox="0 0 179 70" fill="none" xmlns="http://www.w3.org/2000/svg">
<path d="M61.1093 12.587C61.1198 12.6002 61.1302 12.6134 61.1381 12.624L61.1302 12.6107L61.1512 12.6345C61.1407 12.6213 61.1302 12.6081 61.1224 12.5975L60.4911 11.7755C59.776 11.0222 58.8252 10.0098 58.0761 9.29088C55.7946 7.31112 55.5013 7.05473 53.5184 5.70669C51.8656 4.6917 51.567 4.50933 49.6758 3.58949L49.9902 3.82738C52.1511 5.0459 57.2169 7.89527 61.1093 12.587Z" fill="url(#paint0_linear_92_976)"/>
<path d="M63.8832 16.3245C63.3095 15.4839 62.5552 14.3526 61.9448 13.5412L61.8925 13.4751L61.751 13.298L62.0837 13.7632C62.6337 14.5218 63.3724 15.5342 63.8832 16.3245Z" fill="url(#paint1_linear_92_976)"/>
<path d="M64.6716 20.2919C65.5151 22.5544 66.885 24.973 67.1836 24.4417C67.5424 23.802 65.6775 19.0231 64.4018 17.7465C64.0744 17.4584 64.0273 17.7332 64.0456 18.0134C64.077 18.4654 64.318 19.3377 64.6716 20.2919Z" fill="url(#paint2_linear_92_976)"/>
<path d="M67.5058 36.167C67.5032 36.1881 67.5006 36.2093 67.498 36.2304L67.5111 36.2013L67.5137 36.2436C67.5163 36.2225 67.5189 36.2013 67.5216 36.1802C68.4383 34.2612 69.1639 32.7467 68.8443 29.7757L68.7448 29.1493L68.2497 26.7175C68.2 26.884 68.1423 27.0717 67.3932 27.3307C65.984 25.0682 64.9598 23.5404 61.7852 20.7835L61.4656 21.4073C67.1365 30.2303 67.4927 35.2498 67.5058 36.167Z" fill="url(#paint3_linear_92_976)"/>
<path d="M69.2188 35.596C69.2057 36.2304 69.1638 37.4833 69.0302 38.76C69.1035 37.6498 69.2136 36.167 69.2293 35.0542L69.2188 34.0683C69.2214 34.2877 69.2345 34.7978 69.2188 35.596Z" fill="url(#paint4_linear_92_976)"/>
<path d="M65.3421 51.0086C65.3316 51.0271 65.3238 51.0429 65.3133 51.0614L65.3238 51.0482L65.3107 51.0773C65.3211 51.0588 65.329 51.0429 65.3395 51.0244L65.8241 50.1284C66.2379 49.1636 66.8037 47.8817 67.1678 46.8984C67.5895 45.5609 68.116 43.7662 68.4486 42.4049C68.8468 39.738 68.8651 38.9688 68.1998 36.1511L67.8986 36.8199C68.0479 39.7062 68.3255 45.0772 65.3421 51.0086Z" fill="url(#paint5_linear_92_976)"/>
<path d="M63.4746 54.2968L64.8052 52.0976L64.9677 51.8042L64.6821 52.2959C64.3207 52.8959 63.8597 53.7126 63.4746 54.2968Z" fill="url(#paint6_linear_92_976)"/>
<path d="M63.8832 44.7336C63.0843 47.0227 63.0974 49.3434 64.2473 48.7857C65.7429 48.0614 67.5241 43.0869 66.3951 41.8314C65.6748 41.242 64.5302 42.8781 63.8832 44.7336Z" fill="url(#paint7_linear_92_976)"/>
<path d="M56.6983 58.1399C56.6852 58.1532 56.6747 58.1637 56.6616 58.177L56.6852 58.1637L56.6721 58.1875C56.6852 58.1743 56.6957 58.1637 56.7088 58.1505C59.2181 56.6545 62.6573 54.6086 64.9021 51.6112L65.3474 50.6465C64.6716 50.887 64.2499 51.0192 62.1072 51.4024C61.7903 49.6103 61.5388 48.1962 59.5953 45.4103L58.8016 46.0631C59.4669 53.5857 57.5522 57.0166 56.6983 58.1399Z" fill="url(#paint8_linear_92_976)"/>
<path d="M25.8084 68.8661C25.8215 68.8687 25.832 68.8714 25.8425 68.874L25.8163 68.8661L25.8268 68.8687C25.8163 68.8661 25.8032 68.8634 25.7901 68.8608L24.3076 68.4405L25.0698 68.6678L25.5308 68.7974L25.8084 68.8661Z" fill="url(#paint9_linear_92_976)"/>
<path d="M34.481 68.615C32.5244 69.5401 30.9685 69.8335 26.9164 69.1251L26.5654 69.0617C28.2889 69.4344 29.4624 69.6696 31.2383 69.7753C31.4242 69.8308 31.6783 69.8731 31.8722 69.8969C32.1419 69.9154 32.5008 69.9419 32.7706 69.9551L33.3573 69.9815C33.2971 69.963 33.2159 69.9366 33.153 69.9181C33.174 69.6062 33.3364 69.4476 34.481 68.615Z" fill="url(#paint10_linear_92_976)"/>
<path d="M34.4811 68.615C35.2931 69.3498 35.2931 69.3498 35.4371 69.7753C35.3481 69.8943 35.1438 69.9736 34.9997 70C35.2355 69.9947 35.5524 69.9894 35.7881 69.9815L36.5687 69.9445C36.7914 69.9207 37.09 69.8837 37.3074 69.8361C38.7139 69.7489 39.8769 69.6485 42.0484 69.1753L41.7314 69.2335C38.4206 69.741 36.4927 69.7806 34.4811 68.615Z" fill="url(#paint11_linear_92_976)"/>
<path d="M42.677 69.0247C42.6665 69.0273 42.6534 69.03 42.6429 69.0326L42.6508 69.03L42.6272 69.0352C42.6377 69.0326 42.6482 69.03 42.6613 69.0273L42.952 68.948L44.2041 68.607L42.677 69.0247Z" fill="url(#paint12_linear_92_976)"/>
<path d="M59.323 58.4201C56.7246 61.066 56.7377 61.2801 56.7455 61.3805C57.183 61.7241 61.3163 57.5954 61.8297 56.3029C61.8454 56.2474 61.8454 56.2474 61.8323 56.2025C61.7589 56.1787 61.5808 56.1205 59.323 58.4201Z" fill="url(#paint13_linear_92_976)"/>
<path d="M46.7187 66.7727C46.703 66.778 46.6846 66.7833 46.6689 66.7885L46.6925 66.7833L46.6663 66.7938C46.682 66.7885 46.7003 66.7833 46.7161 66.778C49.2123 66.1119 51.7924 65.4246 54.2362 63.7991L55.6664 62.7471C55.4385 62.8528 55.3547 62.8925 54.3515 63.0431C55.4306 61.8352 56.3605 60.7937 56.9367 58.7505L56.1614 59.192C55.0194 60.7039 51.9836 64.7242 46.7187 66.7727Z" fill="url(#paint14_linear_92_976)"/>
<path d="M47.9628 67.0291C46.9884 67.3912 46.1607 67.6634 45.6683 67.8273C44.8824 68.0864 44.5865 68.1841 44.4686 68.2661C44.4791 68.2767 44.4922 68.2872 44.5 68.2978C45.5923 68.2687 48.4186 67.2167 50.5481 66.0432C50.5821 66.0247 50.6162 66.0035 50.6502 65.9824C50.5638 65.9982 50.5638 65.9982 50.0583 66.207C49.4899 66.437 48.7984 66.7198 47.9628 67.0291Z" fill="url(#paint15_linear_92_976)"/>
<path d="M34.4811 68.615C37.6557 69.0485 39.9162 69.3154 42.3051 69.0828L43.1092 68.9031C43.0044 68.8502 42.8185 68.7921 41.831 68.7048C43.4471 68.2899 44.6363 67.9515 46.3939 67.0634L45.595 67.2432C41.6005 68.5489 39.0492 69.0564 34.4811 68.615Z" fill="url(#paint16_linear_92_976)"/>
<path d="M47.7323 64.0343C44.851 65.8185 45.1418 65.9215 45.2544 65.9612C45.4613 66.0352 47.1901 65.6969 49.5004 64.4176C50.6843 63.762 51.8814 62.7576 51.7059 62.3929C51.698 62.377 51.6823 62.3611 51.6718 62.3479C51.4649 62.1946 50.6765 62.2105 47.7323 64.0343Z" fill="url(#paint17_linear_92_976)"/>
<path d="M34.4811 68.6149C38.693 68.2449 41.3071 67.9224 45.6735 66.9894L46.5301 66.6273C45.4247 66.7118 44.1727 66.807 42.3391 67.0158C43.303 66.2969 43.916 65.7735 44.2827 64.5814L43.4262 64.9462C40.9692 67.0105 39.0964 68.0308 34.4811 68.6149Z" fill="url(#paint18_linear_92_976)"/>
<path d="M49.0551 3.32781C49.0682 3.33573 49.0813 3.34367 49.097 3.3516L49.0892 3.34631L49.118 3.35953L49.0735 3.33574C48.7775 3.15864 48.382 2.91811 48.0703 2.77538L47.198 2.4159C45.2833 1.70752 45.2099 1.67845 44.0155 1.33219L42.863 1.02293C44.4818 1.48549 46.7003 2.11986 49.0551 3.32781Z" fill="url(#paint19_linear_92_976)"/>
<path d="M37.4304 1.39033C37.433 1.39562 37.4356 1.4009 37.4382 1.40619L37.4487 1.39826L37.4697 1.40619C37.467 1.4009 37.4644 1.39562 37.4618 1.39033C38.6667 0.568292 38.7401 0.491637 38.7689 0.277537C38.7453 0.269608 38.7139 0.256392 38.6903 0.248462L37.8861 0.161236C37.4959 0.126874 36.9746 0.0845829 36.5843 0.0581508L36.2229 0.044934L35.5654 0.0132168C35.3401 0.00793042 35.0363 0 34.811 0C34.4181 0 33.8943 0.00528722 33.504 0.0132168C35.1568 0.203528 37.4199 1.37976 37.4304 1.39033Z" fill="url(#paint20_linear_92_976)"/>
<path d="M41.3333 1.18945C43.2323 2.33131 45.0894 2.70929 45.0082 2.26259C44.9244 1.80003 42.8682 0.970063 41.0059 0.647592C40.6968 0.597371 40.6627 0.613231 40.6235 0.631734C40.6235 0.671382 40.6182 0.758608 41.3333 1.18945Z" fill="url(#paint21_linear_92_976)"/>
<path d="M48.5077 8.10142C48.5129 8.112 48.5181 8.12257 48.5234 8.13314L48.5339 8.11993L48.5653 8.14108C48.56 8.13051 48.5548 8.11993 48.5496 8.10935C49.4768 6.72696 50.6319 5.00888 49.2751 3.5789L48.4107 3.14806C47.7742 3.23264 46.9046 3.3463 45.5295 3.56568C43.4026 2.84409 41.7209 2.27316 38.6039 1.52513L38.3106 1.76302C44.7777 5.06174 48.4919 8.08292 48.5077 8.10142Z" fill="url(#paint22_linear_92_976)"/>
<path d="M29.2476 1.01498C28.8181 1.39561 29.0931 1.73394 29.8763 1.78416C31.3719 1.88196 33.1138 0.901329 32.6947 0.40705C32.5192 0.198236 31.9927 0.227312 31.7674 0.237885C30.738 0.309251 29.6772 0.634362 29.2476 1.01498Z" fill="url(#paint23_linear_92_976)"/>
<path d="M28.3623 7.21066C28.3596 7.22123 28.357 7.2318 28.3544 7.24237L28.3858 7.22388L28.4042 7.23973C28.4068 7.22916 28.4094 7.21858 28.412 7.20801C31.5343 5.03265 31.6312 4.97186 36.7704 1.689L36.2439 1.41411C34.2296 1.78944 32.582 2.11456 29.7348 2.85994C27.8646 2.53218 27.0133 2.38152 24.8654 2.14628L24.0639 2.5084C24.3259 3.33836 24.5171 3.93572 28.3623 7.21066Z" fill="url(#paint24_linear_92_976)"/>
<path d="M24.1739 2.215C24.1634 2.22029 24.153 2.22822 24.1451 2.2335L24.1687 2.22293L24.1713 2.22822C24.1818 2.22293 24.1923 2.215 24.2001 2.20972C26.6178 1.23702 28.3649 0.533923 31.2514 0.155945C30.8506 0.200879 30.3163 0.259033 29.9155 0.311897C27.8567 0.629082 27.2831 0.750668 25.1745 1.30574C25.0069 1.38504 24.7554 1.44847 24.6192 1.5727C24.4463 1.7313 24.318 2.02998 24.1739 2.215Z" fill="url(#paint25_linear_92_976)"/>
<path d="M18.5791 3.9331C18.3643 4.05204 18.3171 4.0917 18.2936 4.1102C18.3538 4.1287 18.5686 4.03883 19.7971 3.43882C21.0491 2.82824 21.9449 2.40004 22.9324 2.02206C22.4662 2.19916 21.8454 2.42912 21.3844 2.61679C20.5671 2.98419 19.4775 3.47847 18.676 3.88288C18.6445 3.8961 18.6079 3.91724 18.5791 3.9331Z" fill="url(#paint26_linear_92_976)"/>
<path d="M11.423 10.483C11.4151 10.4935 11.4046 10.5068 11.3968 10.5173L11.4256 10.4935L11.423 10.5068C11.4308 10.4962 11.4413 10.483 11.4492 10.4724C13.7463 8.46884 17.2196 5.43973 22.9481 2.7278L23.0319 2.50313C20.7059 3.35953 18.9929 4.02297 16.439 5.42123C16.384 5.40008 16.3081 5.37101 16.253 5.34722C16.2452 5.32872 16.2347 5.30228 16.2295 5.28378C16.2347 5.27849 16.2399 5.27321 16.2452 5.27056L15.7816 5.5666C15.1529 6.00802 14.3016 6.57631 13.6887 7.04151C13.2015 7.46971 12.5336 8.04329 12.1773 8.58515C11.7949 9.16401 11.6849 9.85388 11.423 10.483Z" fill="url(#paint27_linear_92_976)"/>
<path d="M53.5158 8.00362C55.276 10.142 57.602 11.4794 57.7356 10.7023C57.8875 9.80893 54.9879 7.00714 53.1727 6.29347C52.4628 6.0503 52.5414 6.46792 52.7353 6.86176C52.8846 7.16837 53.1622 7.57543 53.5158 8.00362Z" fill="url(#paint28_linear_92_976)"/>
<path d="M60.9155 20.2496C60.9181 20.2655 60.9234 20.2813 60.926 20.2972L60.9365 20.2787L60.9626 20.3104L60.9469 20.2602C61.9475 18.2672 63.0791 16.0072 61.6175 13.3006L60.9076 12.4706C60.5121 12.6134 60.5121 12.6134 58.27 13.0389C55.7659 11.4107 54.0345 10.3244 50.184 8.54019L49.8933 9.00011C58.4036 15.9491 60.8972 20.2126 60.9155 20.2496Z" fill="url(#paint29_linear_92_976)"/>
<path d="M35.9636 5.73048C36.3068 7.74725 40.1153 8.64594 41.1866 6.96486C41.9305 5.79921 40.5422 3.96747 38.2634 3.80095C36.6316 3.75337 35.7986 4.76571 35.9636 5.73048Z" fill="url(#paint30_linear_92_976)"/>
<path d="M39.725 16.7183C39.725 16.7341 39.7276 16.75 39.7276 16.7658L39.7512 16.7447L39.7852 16.7685C39.7852 16.7526 39.7826 16.7368 39.7826 16.7209C43.8033 12.9755 46.2288 10.7182 47.9183 8.67234L47.0853 8.02476C44.5891 8.5534 42.5644 8.99482 39.2404 9.85915C36.1758 8.86794 34.1013 8.20978 30.2351 7.25822L29.4676 7.83445C39.3504 16.0601 39.7224 16.713 39.725 16.7183Z" fill="url(#paint31_linear_92_976)"/>
<path d="M48.0257 15.4918C48.7225 18.3835 52.3948 20.1069 53.639 18.1245C54.6605 16.4989 53.0025 13.2477 50.2731 12.698C48.4055 12.4336 47.6538 13.9429 48.0257 15.4918Z" fill="url(#paint32_linear_92_976)"/>
<path d="M51.8447 30.5924C51.8447 30.6136 51.842 30.6347 51.842 30.6559L51.8656 30.6242L51.8918 30.6664C51.8944 30.6453 51.8944 30.6242 51.8944 30.603C53.8354 28.6497 57.877 24.5818 60.2161 20.9712L59.5036 19.9826C57.5286 20.4108 55.2891 20.8945 51.8106 21.7774C48.6255 20.0698 46.4357 18.928 41.7969 17.0513L41.053 17.794C49.3877 26.0937 51.8394 30.5634 51.8447 30.5924Z" fill="url(#paint33_linear_92_976)"/>
<path d="M23.8753 15.1403C23.7548 17.8258 27.3433 18.8249 29.6038 16.7394C31.6495 14.8495 30.7746 11.8759 28.116 11.6883C27.9746 11.6777 27.7833 11.683 27.6393 11.6856C25.3997 11.8733 23.9434 13.6257 23.8753 15.1403Z" fill="url(#paint34_linear_92_976)"/>
<path d="M26.8089 29.4849C26.8089 29.5061 26.8089 29.5272 26.8116 29.5484L26.8456 29.5087L26.8718 29.5431C26.8718 29.5219 26.8718 29.5008 26.8692 29.4796C30.0831 25.8637 32.4039 23.2496 38.3629 17.6698L37.5378 16.8557C33.8838 18.0293 31.1675 18.9306 26.8901 20.6672C23.058 19.5835 21.8558 19.2557 16.9916 18.1799L16.1534 19.1051C18.0787 21.0928 18.0787 21.0928 20.9207 23.8047C21.9029 24.743 26.8011 29.4664 26.8089 29.4849Z" fill="url(#paint35_linear_92_976)"/>
<path d="M17.4213 7.47234C16.6512 8.66178 17.1934 9.39396 18.6052 9.07148C21.1905 8.48205 23.3514 5.6406 22.2147 4.93751C21.903 4.74455 21.4577 4.81592 21.2455 4.85029C19.7237 5.17011 18.0761 6.45999 17.4213 7.47234Z" fill="url(#paint36_linear_92_976)"/>
<path d="M15.5668 18.2249C15.5642 18.2407 15.5615 18.2566 15.5589 18.2725L15.5851 18.246L15.6087 18.2645C15.6113 18.2487 15.6139 18.2328 15.6166 18.217C17.864 15.9121 20.9417 12.7534 27.532 7.95603L26.9898 7.45911C23.1446 8.78864 20.7479 9.68998 17.5261 11.2125C13.1622 10.3825 13.1622 10.3825 12.3974 10.2213L11.5749 10.9746C11.753 12.4706 11.9521 14.1676 15.5668 18.2249Z" fill="url(#paint37_linear_92_976)"/>
<path d="M6.83122 13.9561C7.07744 13.6363 9.36936 10.8292 11.106 9.20894C8.74595 11.5561 8.60451 11.6962 7.22673 13.4381L6.79716 14.0011C6.80764 13.9879 6.82074 13.9694 6.83122 13.9561Z" fill="url(#paint38_linear_92_976)"/>
<path d="M1.88332 23.9475C1.87808 23.9633 1.87284 23.9818 1.87022 23.9977L1.88332 23.966V23.9818C1.88855 23.966 1.89379 23.9475 1.89641 23.9316C3.22704 20.8972 5.0501 16.7447 10.3071 11.5059L10.4067 11.0565C8.2719 12.7878 6.85483 14.0064 5.21512 16.3509L5.23607 16.2742L4.10714 18.2038C3.59374 19.2399 2.91272 20.6223 2.45695 21.6849C2.24217 22.3536 2.04048 23.2655 1.88332 23.9475Z" fill="url(#paint39_linear_92_976)"/>
<path d="M5.5321 19.5465C4.98465 21.3254 5.49281 22.3351 6.61912 21.706C8.66745 20.5615 10.5796 15.7006 9.1468 15.283C8.93201 15.2196 8.70675 15.3042 8.57316 15.3544C7.31326 15.9306 6.01406 17.9791 5.5321 19.5465Z" fill="url(#paint40_linear_92_976)"/>
<path d="M5.75736 33.5528C5.75997 33.574 5.76259 33.5951 5.76259 33.6163L5.77831 33.5713L5.79664 33.6004C5.79402 33.5793 5.79141 33.5581 5.79141 33.537C7.16918 30.0162 8.88485 25.6364 14.2047 19.4831L13.6861 18.8223C10.6477 20.7333 8.6072 22.084 5.9119 24.7087C4.11764 24.2435 3.06729 23.9606 2.32601 23.6065L1.89906 24.6611C2.01955 26.2153 2.24481 29.1096 5.57662 33.3176C5.62901 33.389 5.7233 33.4709 5.75736 33.5528Z" fill="url(#paint41_linear_92_976)"/>
<path d="M1.32801 25.4091L1.42492 24.788C1.27038 25.2717 1.03464 25.9087 0.911535 26.4003L0.356235 29.0356L0 31.7608C0.0995351 31.0286 0.180737 30.0427 0.33004 29.3211C0.581497 28.1369 1.05822 26.5906 1.32801 25.4091Z" fill="url(#paint42_linear_92_976)"/>
<path d="M59.4984 28.9616C59.6215 32.2365 61.9318 34.515 63.3593 32.7705C64.7424 31.0815 64.0535 26.6197 61.7956 25.6629C60.2606 25.166 59.4225 26.9501 59.4984 28.9616Z" fill="url(#paint43_linear_92_976)"/>
<path d="M58.9248 44.8896C58.917 44.9081 58.9091 44.9292 58.9039 44.9477L58.9275 44.9266L58.9379 44.9583L58.9563 44.8975C63.0844 41.4798 65.6408 39.093 67.3329 36.2648L67.1548 35.1309C65.2034 35.5908 63.2363 35.9608 61.277 36.3784C59.158 34.256 57.6675 32.8233 53.8721 30.2594L53.1151 31.0497C58.9039 40.6129 58.9301 44.8526 58.9248 44.8896Z" fill="url(#paint44_linear_92_976)"/>
<path d="M36.3618 25.9642C36.6158 29.366 40.6208 30.9044 42.6639 28.3827C44.4608 26.1651 43.2925 22.2928 39.9398 22.0073C37.5431 21.9571 36.2151 24.0215 36.3618 25.9642Z" fill="url(#paint45_linear_92_976)"/>
<path d="M39.3006 41.6173C39.298 41.6384 39.298 41.6569 39.2954 41.6781L39.319 41.6516L39.3478 41.6807C39.3504 41.6596 39.3504 41.6411 39.353 41.6199C43.083 37.9036 46.9517 34.3352 50.7157 30.6506L50.0295 29.6224C46.5012 30.6347 43.8819 31.4013 39.7957 32.7916C36.3486 31.3061 33.9912 30.3123 29.1559 28.6735L28.3361 29.6356C37.3885 38.6357 39.2954 41.6041 39.3006 41.6173Z" fill="url(#paint46_linear_92_976)"/>
<path d="M47.6484 40.0551C47.3472 43.153 49.8854 44.9292 52.0306 43.1186C54.2597 41.2367 54.202 37.0657 51.2972 36.4392C49.2855 36.1723 47.837 38.1071 47.6484 40.0551Z" fill="url(#paint47_linear_92_976)"/>
<path d="M46.1529 54.3866C46.1476 54.3998 46.1398 54.4157 46.1345 54.4289L46.1581 54.4104L46.1686 54.4342C46.1738 54.421 46.1817 54.4051 46.1869 54.3919C50.0059 51.4685 53.8956 48.6429 57.6727 45.664L57.492 44.6675C54.6395 45.2966 52.51 45.7803 49.0132 46.7319C46.6662 45.0587 44.9689 43.9037 41.184 41.9688L40.3798 42.7988C46.1843 51.1434 46.1555 54.3575 46.1529 54.3866Z" fill="url(#paint48_linear_92_976)"/>
<path d="M24.0953 39.7115C24.7344 42.9071 28.4565 43.938 30.1277 41.3794C31.6809 39.0031 30.3084 35.2974 27.1102 35.3608C24.8261 35.567 23.7076 37.7767 24.0953 39.7115Z" fill="url(#paint49_linear_92_976)"/>
<path d="M29.2948 53.6413C29.2974 53.6571 29.3 53.6703 29.3026 53.6862L29.3209 53.6624L29.3419 53.6835C29.3393 53.6677 29.3367 53.6545 29.334 53.6386C30.8244 51.1725 32.5139 48.3786 37.9464 42.6878L37.2576 41.7891C33.8734 43.1081 31.5683 44.0358 28.0715 45.8015C24.779 44.731 23.4169 44.2869 18.3354 43.0076L17.9032 43.983C21.1748 46.6183 28.8364 52.7928 29.2948 53.6413Z" fill="url(#paint50_linear_92_976)"/>
<path d="M11.9154 28.2611C12.1381 31.2823 15.0298 32.2391 16.9917 29.9396C19.1789 27.373 18.0342 23.2311 15.2158 23.5139C15.1477 23.5219 15.056 23.5377 14.9853 23.5483C12.9108 24.0056 11.7766 26.3501 11.9154 28.2611Z" fill="url(#paint51_linear_92_976)"/>
<path d="M16.921 43.0129C16.9262 43.0341 16.9315 43.0526 16.9367 43.0737L16.9498 43.0446L16.9839 43.0658C16.9786 43.0446 16.9734 43.0261 16.9681 43.005C18.3538 40.1953 20.0799 36.7009 25.9865 29.781L25.1326 28.9193C20.9024 30.9573 18.3512 32.2841 15.2865 34.3168C12.5441 33.6533 9.79637 33.0084 7.05392 32.3397L6.63221 33.4419C8.49718 35.5353 10.4276 37.7001 16.6224 42.7697C16.7141 42.8411 16.8581 42.9151 16.921 43.0129Z" fill="url(#paint52_linear_92_976)"/>
<path d="M0.0681099 34.5599C0.117877 36.3679 0.447911 37.4674 0.832954 37.1185C1.69734 36.3361 1.8807 29.4955 1.04251 29.3316C0.95083 29.3131 0.887966 29.3819 0.822483 29.4559C0.356239 30.114 0.0104843 32.4506 0.0681099 34.5599Z" fill="url(#paint53_linear_92_976)"/>
<path d="M4.2512 48.3152C4.25906 48.3337 4.26953 48.3522 4.27739 48.3707L4.26953 48.3416L4.28786 48.3574C4.28001 48.3389 4.26953 48.3204 4.26167 48.3019C3.71161 45.2041 2.95724 40.9591 5.09724 34.0921L4.59171 33.381C3.1825 35.4375 2.0719 37.0604 1.39611 40.1212C0.639123 39.8305 0.222643 39.6719 0.123108 39.3494L0.544827 41.9635C0.772709 42.775 1.07393 43.8799 1.49826 44.6067C2.27621 45.9442 3.38681 47.0358 4.2512 48.3152Z" fill="url(#paint54_linear_92_976)"/>
<path d="M6.20523 44.0094C7.1901 46.4068 9.08127 47.279 9.81731 45.6746C10.8519 43.4199 8.91363 38.5406 6.74481 39.2833C5.50324 39.8754 5.46395 42.2041 6.20523 44.0094Z" fill="url(#paint55_linear_92_976)"/>
<path d="M15.1189 56.3796C15.1293 56.3928 15.1398 56.406 15.1503 56.4192L15.1477 56.3928L15.1739 56.4086C15.1634 56.3954 15.1529 56.3822 15.1424 56.369C14.6055 53.8368 13.8721 50.3663 16.143 44.3239L15.2865 43.5997C13.4032 45.2887 11.9154 46.6235 10.4407 49.1953C5.69708 48.2015 5.69708 48.2015 4.82484 48.0059L5.037 48.9945C6.80244 50.5909 9.00007 52.5786 14.8307 56.1972C14.9172 56.2553 15.0429 56.3108 15.1189 56.3796Z" fill="url(#paint56_linear_92_976)"/>
<path d="M4.45807 52.4306C3.82943 51.3205 2.27354 47.9689 1.68419 46.2429L2.43594 48.2676C3.01219 49.539 3.8111 51.2201 4.47117 52.4491C4.46593 52.4439 4.46069 52.4359 4.45807 52.4306Z" fill="url(#paint57_linear_92_976)"/>
<path d="M11.6272 61.0422C11.6403 61.0528 11.6534 61.0633 11.6665 61.0739L11.643 61.0501L11.6587 61.0607C11.6456 61.0501 11.6325 61.0395 11.6194 61.029C9.50819 58.8642 6.3152 55.5893 4.52357 49.6685L3.99708 49.0923C4.2433 50.9504 4.43713 52.4174 6.07946 54.9892L6.04279 54.9496C6.72382 55.8615 7.63535 57.08 8.36353 57.9523L9.81465 59.5329C10.3411 60.0113 11.0746 60.6034 11.6272 61.0422Z" fill="url(#paint58_linear_92_976)"/>
<path d="M52.3659 53.6729C51.3549 55.51 51.3077 57.2836 52.8557 56.895C55.5275 56.2236 58.0421 51.8808 56.3054 50.9372C56.2688 50.9161 56.2164 50.8976 56.1771 50.8791C54.9617 50.4984 53.2853 51.9998 52.3659 53.6729Z" fill="url(#paint59_linear_92_976)"/>
<path d="M44.1727 64.3435C44.1596 64.3514 44.1465 64.362 44.1334 64.37L44.1596 64.3594L44.1465 64.3752L44.1832 64.3488C48.8954 62.2554 52.4839 60.6325 55.7948 58.8324L56.24 58.0686C53.8067 58.4412 52.4682 58.6474 50.2286 59.0968C49.6341 57.6509 49.1469 56.6412 47.3867 54.8201L46.5616 55.4412C46.9885 60.6668 45.4981 63.1673 44.1727 64.3435Z" fill="url(#paint60_linear_92_976)"/>
<path d="M35.8012 51.5267C35.8562 54.0113 37.9281 55.5602 39.7878 53.7099C41.713 51.7936 41.4642 48.22 38.7951 47.9689C37.1004 47.9425 35.7566 49.5363 35.8012 51.5267Z" fill="url(#paint61_linear_92_976)"/>
<path d="M36.3827 63.0484C36.3801 63.0589 36.3775 63.0695 36.3749 63.0801L36.388 63.0642L36.3958 63.0801C36.3985 63.0695 36.4011 63.0589 36.4037 63.0484C37.8679 61.3937 39.5259 59.5171 45.003 55.1875L44.8249 54.3998C42.1584 55.243 40.3432 55.8377 37.5903 56.9901C35.5734 55.843 34.1196 55.0553 30.9083 53.7681L30.4683 54.5293C36.1287 60.6034 36.3749 62.8158 36.3827 63.0484Z" fill="url(#paint62_linear_92_976)"/>
<path d="M40.4086 61.9224C40.3955 61.9488 39.023 64.5524 40.5605 64.066C42.5643 63.4343 45.1418 60.1884 43.7509 59.5091C43.688 59.48 43.599 59.4563 43.5309 59.4404C42.5643 59.3215 41.252 60.3655 40.4086 61.9224Z" fill="url(#paint63_linear_92_976)"/>
<path d="M34.4811 68.6149C36.4482 67.7215 36.4482 67.7215 43.0123 64.8008L43.4628 64.2933C41.6319 64.7374 40.3929 65.0546 38.6118 65.6863C38.4546 64.9964 38.321 64.4017 37.09 63.236L36.642 63.7435C36.9223 66.0378 36.6787 67.2854 34.4811 68.6149Z" fill="url(#paint64_linear_92_976)"/>
<path d="M29.7845 61.7691C30.366 62.9057 32.1 64.7718 32.6737 63.0748C33.2001 61.518 32.3227 58.8457 30.497 58.8616C29.3602 58.9699 29.0328 60.3021 29.7845 61.7691Z" fill="url(#paint65_linear_92_976)"/>
<path d="M34.4811 68.6149C33.8655 67.333 33.9074 66.3656 35.7488 63.7065L35.5576 63.1699C34.2479 63.9576 33.3993 64.5021 32.6501 65.4246C31.3562 64.7823 30.5704 64.4122 28.1632 63.6457L28.3675 64.1823C31.516 66.1488 33.0457 67.1638 34.4811 68.6149Z" fill="url(#paint66_linear_92_976)"/>
<path d="M18.304 53.1707C19.6948 55.4888 22.3456 56.525 22.8878 54.384C23.4431 52.1848 21.2979 48.8755 18.9536 49.1953C17.5024 49.5231 17.2064 51.3443 18.304 53.1707Z" fill="url(#paint67_linear_92_976)"/>
<path d="M27.5031 63.6008C27.5136 63.6114 27.5215 63.6219 27.5319 63.6299L27.5267 63.614L27.5503 63.6272C27.5398 63.6167 27.5319 63.6061 27.5215 63.5982C27.0631 61.9012 26.4318 59.5778 28.9438 54.6218L28.2287 53.9293C25.8136 55.4809 24.5118 56.4192 23.1707 57.8862C21.0333 57.3285 19.4905 56.9241 16.1744 56.2104L16.3735 57.0007C18.7021 58.4043 19.061 58.621 22.0156 60.3523C27.0945 63.3259 27.4769 63.5796 27.5031 63.6008Z" fill="url(#paint68_linear_92_976)"/>
<path d="M9.81992 57.68C11.237 59.0994 12.6907 59.858 12.6986 59.184C12.7117 58.0818 8.55216 53.057 7.68516 53.8923C7.34203 54.4262 8.34 56.1972 9.81992 57.68Z" fill="url(#paint69_linear_92_976)"/>
<path d="M22.474 65.7048C22.4897 65.7127 22.5054 65.718 22.5238 65.7259L22.5002 65.7127L22.5264 65.7207C22.5107 65.7127 22.495 65.7074 22.4766 65.6995C20.3576 64.3065 17.1541 62.2025 15.3756 57.4183L14.5321 56.9003C14.3357 58.2932 14.1812 59.3928 14.9958 61.2986C12.125 60.8492 12.125 60.8492 11.5932 60.7488L12.3109 61.436C13.5132 62.1232 14.6474 62.7735 16.7848 63.6722C18.6445 64.4546 20.5881 64.9991 22.474 65.7048Z" fill="url(#paint70_linear_92_976)"/>
<path d="M21.7143 63.7065C23.2205 64.6475 25.3186 65.4537 25.2086 64.9303C25.0619 64.2219 20.8185 60.5717 19.5141 60.9734C18.9509 61.2589 19.7708 62.4906 21.7143 63.7065Z" fill="url(#paint71_linear_92_976)"/>
<path d="M34.4811 68.615C31.1598 67.7692 29.397 66.9471 27.7206 64.3092L26.9714 63.8784C26.8693 64.6819 26.7828 65.3771 27.6315 66.3921C26.0887 66.096 25.0357 65.8978 22.8853 65.6017L23.6318 66.0326C26.4188 66.8255 29.3027 67.6502 34.4811 68.615Z" fill="url(#paint72_linear_92_976)"/>
<path d="M20.63 66.6617C21.903 67.1427 23.2467 67.4678 23.4458 67.3489C23.3358 67.1216 17.1279 64.4625 16.8031 64.5048C16.7952 64.5154 16.7848 64.5312 16.7769 64.5444C16.7821 64.555 16.7874 64.5682 16.7926 64.5788C17.0886 64.9541 18.6917 65.9295 20.63 66.6617Z" fill="url(#paint73_linear_92_976)"/>
<path d="M26.2458 68.5436C28.907 68.7339 30.641 68.7841 34.4784 68.615C30.3005 68.5965 27.7178 68.2555 23.4405 66.2757L22.5604 66.022C23.6867 66.8361 24.5039 67.378 26.3872 68.0388C25.2635 68.0388 24.8706 68.0414 24.0481 68.0969C24.7685 68.274 25.5019 68.4247 26.2458 68.5436Z" fill="url(#paint74_linear_92_976)"/>
<path d="M97.166 32.2734V50.2046H94.8293V36.8339L88.9233 50.2046H87.2799L81.3483 36.808V50.2046H79.0116V32.2734H81.528L88.1016 47.0951L94.6752 32.2734H97.166Z" fill="black"/>
<path d="M100.256 43.0528C100.256 41.6018 100.547 40.3321 101.129 39.2438C101.711 38.1382 102.507 37.2831 103.517 36.6785C104.544 36.0739 105.682 35.7716 106.932 35.7716C108.165 35.7716 109.235 36.0393 110.142 36.5748C111.049 37.1103 111.725 37.7841 112.17 38.596V36.0048H114.533V50.2046H112.17V47.5615C111.708 48.3907 111.015 49.0817 110.091 49.6345C109.183 50.17 108.122 50.4378 106.906 50.4378C105.657 50.4378 104.527 50.1268 103.517 49.5049C102.507 48.883 101.711 48.0107 101.129 46.8878C100.547 45.765 100.256 44.4866 100.256 43.0528ZM112.17 43.0787C112.17 42.0077 111.956 41.0749 111.529 40.2802C111.101 39.4856 110.519 38.881 109.782 38.4664C109.063 38.0345 108.267 37.8186 107.394 37.8186C106.521 37.8186 105.725 38.0259 105.006 38.4405C104.287 38.8551 103.714 39.4597 103.286 40.2543C102.858 41.049 102.644 41.9818 102.644 43.0528C102.644 44.1411 102.858 45.0912 103.286 45.9032C103.714 46.6978 104.287 47.311 105.006 47.7429C105.725 48.1575 106.521 48.3648 107.394 48.3648C108.267 48.3648 109.063 48.1575 109.782 47.7429C110.519 47.311 111.101 46.6978 111.529 45.9032C111.956 45.0912 112.17 44.1498 112.17 43.0787Z" fill="black"/>
<path d="M125.466 35.7456C126.527 35.7456 127.486 35.9788 128.342 36.4453C129.198 36.8944 129.866 37.5768 130.345 38.4923C130.841 39.4079 131.09 40.5221 131.09 41.835V50.2046H128.779V42.1718C128.779 40.7553 128.428 39.6756 127.726 38.9328C127.024 38.1727 126.065 37.7927 124.85 37.7927C123.617 37.7927 122.633 38.1814 121.897 38.9587C121.178 39.7361 120.818 40.8676 120.818 42.3532V50.2046H118.482V31.0296H120.818V38.0259C121.281 37.3004 121.914 36.7389 122.719 36.3416C123.54 35.9443 124.456 35.7456 125.466 35.7456Z" fill="black"/>
<path d="M134.034 43.0528C134.034 41.6018 134.325 40.3321 134.907 39.2438C135.489 38.1382 136.285 37.2831 137.295 36.6785C138.322 36.0739 139.46 35.7716 140.71 35.7716C141.942 35.7716 143.012 36.0393 143.92 36.5748C144.827 37.1103 145.503 37.7841 145.948 38.596V36.0048H148.311V50.2046H145.948V47.5615C145.486 48.3907 144.793 49.0817 143.868 49.6345C142.961 50.17 141.9 50.4378 140.684 50.4378C139.435 50.4378 138.305 50.1268 137.295 49.5049C136.285 48.883 135.489 48.0107 134.907 46.8878C134.325 45.765 134.034 44.4866 134.034 43.0528ZM145.948 43.0787C145.948 42.0077 145.734 41.0749 145.306 40.2802C144.878 39.4856 144.296 38.881 143.56 38.4664C142.841 38.0345 142.045 37.8186 141.172 37.8186C140.299 37.8186 139.503 38.0259 138.784 38.4405C138.065 38.8551 137.492 39.4597 137.064 40.2543C136.636 41.049 136.422 41.9818 136.422 43.0528C136.422 44.1411 136.636 45.0912 137.064 45.9032C137.492 46.6978 138.065 47.311 138.784 47.7429C139.503 48.1575 140.299 48.3648 141.172 48.3648C142.045 48.3648 142.841 48.1575 143.56 47.7429C144.296 47.311 144.878 46.6978 145.306 45.9032C145.734 45.0912 145.948 44.1498 145.948 43.0787Z" fill="black"/>
<path d="M154.596 31.0296V50.2046H152.259V31.0296H154.596Z" fill="black"/>
<path d="M160.915 31.0296V50.2046H158.579V31.0296H160.915Z" fill="black"/>
<path d="M164.025 43.0528C164.025 41.6018 164.316 40.3321 164.898 39.2438C165.48 38.1382 166.276 37.2831 167.286 36.6785C168.313 36.0739 169.451 35.7716 170.701 35.7716C171.934 35.7716 173.004 36.0393 173.911 36.5748C174.818 37.1103 175.494 37.7841 175.94 38.596V36.0048H178.302V50.2046H175.94V47.5615C175.477 48.3907 174.784 49.0817 173.86 49.6345C172.952 50.17 171.891 50.4378 170.675 50.4378C169.426 50.4378 168.296 50.1268 167.286 49.5049C166.276 48.883 165.48 48.0107 164.898 46.8878C164.316 45.765 164.025 44.4866 164.025 43.0528ZM175.94 43.0787C175.94 42.0077 175.726 41.0749 175.298 40.2802C174.87 39.4856 174.288 38.881 173.551 38.4664C172.832 38.0345 172.036 37.8186 171.163 37.8186C170.29 37.8186 169.494 38.0259 168.775 38.4405C168.056 38.8551 167.483 39.4597 167.055 40.2543C166.627 41.049 166.413 41.9818 166.413 43.0528C166.413 44.1411 166.627 45.0912 167.055 45.9032C167.483 46.6978 168.056 47.311 168.775 47.7429C169.494 48.1575 170.29 48.3648 171.163 48.3648C172.036 48.3648 172.832 48.1575 173.551 47.7429C174.288 47.311 174.87 46.6978 175.298 45.9032C175.726 45.0912 175.94 44.1498 175.94 43.0787Z" fill="black"/>
<path d="M82.1058 24.7201C81.2755 24.7201 80.5266 24.5257 79.859 24.1371C79.1913 23.7397 78.6692 23.187 78.2926 22.4787C77.916 21.7704 77.7277 20.9715 77.7277 20.0818C77.7277 19.1835 77.916 18.3846 78.2926 17.685C78.6692 16.9767 79.1913 16.4282 79.859 16.0395C80.5266 15.6422 81.2755 15.4436 82.1058 15.4436C82.9361 15.4436 83.685 15.6422 84.3526 16.0395C85.0203 16.4282 85.5424 16.9767 85.919 17.685C86.2956 18.3846 86.4839 19.1835 86.4839 20.0818C86.4839 20.9715 86.2956 21.7704 85.919 22.4787C85.5424 23.187 85.0203 23.7397 84.3526 24.1371C83.685 24.5257 82.9361 24.7201 82.1058 24.7201ZM82.1058 24.2018C82.8162 24.2018 83.4582 24.0334 84.0317 23.6966C84.6051 23.3597 85.0545 22.8803 85.3798 22.2584C85.7136 21.6366 85.8805 20.911 85.8805 20.0818C85.8805 19.244 85.7136 18.5141 85.3798 17.8923C85.0545 17.2704 84.6051 16.791 84.0317 16.4541C83.4582 16.1173 82.8162 15.9489 82.1058 15.9489C81.3954 15.9489 80.7534 16.1173 80.1799 16.4541C79.6065 16.791 79.1528 17.2704 78.819 17.8923C78.4852 18.5141 78.3183 19.244 78.3183 20.0818C78.3183 20.911 78.4852 21.6366 78.819 22.2584C79.1528 22.8803 79.6065 23.3597 80.1799 23.6966C80.7534 24.0334 81.3954 24.2018 82.1058 24.2018Z" fill="black"/>
<path d="M91.3761 17.4388C92.2064 17.4388 92.8826 17.6979 93.4047 18.2162C93.9268 18.7258 94.1879 19.4859 94.1879 20.4964V24.6164H93.6229V20.5353C93.6229 19.6975 93.4132 19.0583 92.9938 18.6178C92.5744 18.1687 92.0052 17.9441 91.2862 17.9441C90.533 17.9441 89.9296 18.1859 89.4759 18.6696C89.0308 19.1533 88.8083 19.8702 88.8083 20.8203V24.6164H88.2305V17.5813H88.8083V19.0713C89.0052 18.5444 89.3304 18.1427 89.7841 17.8663C90.2463 17.5813 90.777 17.4388 91.3761 17.4388Z" fill="black"/>
<path d="M96.8076 15.029V24.6164H96.2299V15.029H96.8076Z" fill="black"/>
<path d="M99.2209 16.0136C99.0839 16.0136 98.9684 15.9705 98.8742 15.8841C98.7801 15.7891 98.733 15.6638 98.733 15.5084C98.733 15.3615 98.7801 15.2406 98.8742 15.1456C98.9684 15.0506 99.0839 15.0031 99.2209 15.0031C99.3578 15.0031 99.4734 15.0506 99.5675 15.1456C99.6617 15.2406 99.7088 15.3615 99.7088 15.5084C99.7088 15.6638 99.6617 15.7891 99.5675 15.8841C99.4734 15.9705 99.3578 16.0136 99.2209 16.0136ZM99.5033 17.5813V24.6164H98.9256V17.5813H99.5033Z" fill="black"/>
<path d="M104.767 17.4388C105.597 17.4388 106.273 17.6979 106.795 18.2162C107.318 18.7258 107.579 19.4859 107.579 20.4964V24.6164H107.014V20.5353C107.014 19.6975 106.804 19.0583 106.385 18.6178C105.965 18.1687 105.396 17.9441 104.677 17.9441C103.924 17.9441 103.32 18.1859 102.867 18.6696C102.422 19.1533 102.199 19.8702 102.199 20.8203V24.6164H101.621V17.5813H102.199V19.0713C102.396 18.5444 102.721 18.1427 103.175 17.8663C103.637 17.5813 104.168 17.4388 104.767 17.4388Z" fill="black"/>
<path d="M115.899 20.626C115.899 20.9369 115.89 21.1701 115.873 21.3256H109.852C109.869 21.9561 110.006 22.4873 110.263 22.9192C110.519 23.3511 110.857 23.675 111.277 23.8909C111.696 24.1068 112.154 24.2148 112.651 24.2148C113.335 24.2148 113.909 24.0464 114.371 23.7095C114.833 23.364 115.124 22.8976 115.244 22.3103H115.848C115.711 23.0272 115.36 23.6102 114.795 24.0593C114.23 24.4998 113.515 24.7201 112.651 24.7201C112 24.7201 111.418 24.5732 110.905 24.2796C110.391 23.9859 109.989 23.567 109.698 23.0228C109.407 22.4701 109.261 21.8266 109.261 21.0924C109.261 20.3582 109.402 19.7191 109.685 19.1749C109.976 18.6308 110.378 18.2162 110.892 17.9311C111.405 17.6375 111.992 17.4906 112.651 17.4906C113.318 17.4906 113.896 17.6375 114.384 17.9311C114.88 18.2162 115.257 18.6005 115.514 19.0842C115.771 19.5593 115.899 20.0732 115.899 20.626ZM115.321 20.8462C115.347 20.2243 115.236 19.6975 114.987 19.2656C114.748 18.8337 114.418 18.5141 113.999 18.3069C113.579 18.0909 113.126 17.983 112.638 17.983C112.15 17.983 111.696 18.0909 111.277 18.3069C110.866 18.5141 110.528 18.8337 110.263 19.2656C110.006 19.6975 109.869 20.2243 109.852 20.8462H115.321Z" fill="black"/>
<defs>
<linearGradient id="paint0_linear_92_976" x1="41.8934" y1="-14.625" x2="81.8705" y2="51.4018" gradientUnits="userSpaceOnUse">
<stop stop-color="#18FFD9"/>
<stop offset="0.494" stop-color="#1792FF"/>
<stop offset="1" stop-color="#7C2DFB"/>
</linearGradient>
<linearGradient id="paint1_linear_92_976" x1="44.4099" y1="-16.1487" x2="84.387" y2="49.8783" gradientUnits="userSpaceOnUse">
<stop stop-color="#18FFD9"/>
<stop offset="0.494" stop-color="#1792FF"/>
<stop offset="1" stop-color="#7C2DFB"/>
</linearGradient>
<linearGradient id="paint2_linear_92_976" x1="43.742" y1="-15.7443" x2="83.7192" y2="50.2827" gradientUnits="userSpaceOnUse">
<stop stop-color="#18FFD9"/>
<stop offset="0.494" stop-color="#1792FF"/>
<stop offset="1" stop-color="#7C2DFB"/>
</linearGradient>
<linearGradient id="paint3_linear_92_976" x1="40.8441" y1="-13.9897" x2="80.8211" y2="52.0372" gradientUnits="userSpaceOnUse">
<stop stop-color="#18FFD9"/>
<stop offset="0.494" stop-color="#1792FF"/>
<stop offset="1" stop-color="#7C2DFB"/>
</linearGradient>
<linearGradient id="paint4_linear_92_976" x1="39.6009" y1="-13.2372" x2="79.5776" y2="52.79" gradientUnits="userSpaceOnUse">
<stop stop-color="#18FFD9"/>
<stop offset="0.494" stop-color="#1792FF"/>
<stop offset="1" stop-color="#7C2DFB"/>
</linearGradient>
<linearGradient id="paint5_linear_92_976" x1="34.7121" y1="-10.2771" x2="74.6892" y2="55.7497" gradientUnits="userSpaceOnUse">
<stop stop-color="#18FFD9"/>
<stop offset="0.494" stop-color="#1792FF"/>
<stop offset="1" stop-color="#7C2DFB"/>
</linearGradient>
<linearGradient id="paint6_linear_92_976" x1="28.7239" y1="-6.65173" x2="68.7011" y2="59.3754" gradientUnits="userSpaceOnUse">
<stop stop-color="#18FFD9"/>
<stop offset="0.494" stop-color="#1792FF"/>
<stop offset="1" stop-color="#7C2DFB"/>
</linearGradient>
<linearGradient id="paint7_linear_92_976" x1="32.6961" y1="-9.05622" x2="72.6732" y2="56.9704" gradientUnits="userSpaceOnUse">
<stop stop-color="#18FFD9"/>
<stop offset="0.494" stop-color="#1792FF"/>
<stop offset="1" stop-color="#7C2DFB"/>
</linearGradient>
<linearGradient id="paint8_linear_92_976" x1="25.7627" y1="-4.85841" x2="65.7397" y2="61.1683" gradientUnits="userSpaceOnUse">
<stop stop-color="#18FFD9"/>
<stop offset="0.494" stop-color="#1792FF"/>
<stop offset="1" stop-color="#7C2DFB"/>
</linearGradient>
<linearGradient id="paint9_linear_92_976" x1="-6.88287" y1="14.9059" x2="33.0952" y2="80.9339" gradientUnits="userSpaceOnUse">
<stop stop-color="#18FFD9"/>
<stop offset="0.494" stop-color="#1792FF"/>
<stop offset="1" stop-color="#7C2DFB"/>
</linearGradient>
<linearGradient id="paint10_linear_92_976" x1="-2.95698" y1="12.5301" x2="37.0202" y2="78.5569" gradientUnits="userSpaceOnUse">
<stop stop-color="#18FFD9"/>
<stop offset="0.494" stop-color="#1792FF"/>
<stop offset="1" stop-color="#7C2DFB"/>
</linearGradient>
<linearGradient id="paint11_linear_92_976" x1="2.59897" y1="9.16606" x2="42.5763" y2="75.1931" gradientUnits="userSpaceOnUse">
<stop stop-color="#18FFD9"/>
<stop offset="0.494" stop-color="#1792FF"/>
<stop offset="1" stop-color="#7C2DFB"/>
</linearGradient>
<linearGradient id="paint12_linear_92_976" x1="6.52699" y1="6.78482" x2="46.5054" y2="72.8143" gradientUnits="userSpaceOnUse">
<stop stop-color="#18FFD9"/>
<stop offset="0.494" stop-color="#1792FF"/>
<stop offset="1" stop-color="#7C2DFB"/>
</linearGradient>
<linearGradient id="paint13_linear_92_976" x1="22.5867" y1="-2.93547" x2="62.5638" y2="63.0913" gradientUnits="userSpaceOnUse">
<stop stop-color="#18FFD9"/>
<stop offset="0.494" stop-color="#1792FF"/>
<stop offset="1" stop-color="#7C2DFB"/>
</linearGradient>
<linearGradient id="paint14_linear_92_976" x1="15.3407" y1="1.45147" x2="55.3179" y2="67.4784" gradientUnits="userSpaceOnUse">
<stop stop-color="#18FFD9"/>
<stop offset="0.494" stop-color="#1792FF"/>
<stop offset="1" stop-color="#7C2DFB"/>
</linearGradient>
<linearGradient id="paint15_linear_92_976" x1="10.3194" y1="4.49072" x2="50.2971" y2="70.5184" gradientUnits="userSpaceOnUse">
<stop stop-color="#18FFD9"/>
<stop offset="0.494" stop-color="#1792FF"/>
<stop offset="1" stop-color="#7C2DFB"/>
</linearGradient>
<linearGradient id="paint16_linear_92_976" x1="4.76951" y1="7.85183" x2="44.7467" y2="73.8787" gradientUnits="userSpaceOnUse">
<stop stop-color="#18FFD9"/>
<stop offset="0.494" stop-color="#1792FF"/>
<stop offset="1" stop-color="#7C2DFB"/>
</linearGradient>
<linearGradient id="paint17_linear_92_976" x1="12.2702" y1="3.31046" x2="52.2474" y2="69.3376" gradientUnits="userSpaceOnUse">
<stop stop-color="#18FFD9"/>
<stop offset="0.494" stop-color="#1792FF"/>
<stop offset="1" stop-color="#7C2DFB"/>
</linearGradient>
<linearGradient id="paint18_linear_92_976" x1="4.91553" y1="7.76387" x2="44.8925" y2="73.7907" gradientUnits="userSpaceOnUse">
<stop stop-color="#18FFD9"/>
<stop offset="0.494" stop-color="#1792FF"/>
<stop offset="1" stop-color="#7C2DFB"/>
</linearGradient>
<linearGradient id="paint19_linear_92_976" x1="37.5543" y1="-11.9978" x2="77.5312" y2="54.0288" gradientUnits="userSpaceOnUse">
<stop stop-color="#18FFD9"/>
<stop offset="0.494" stop-color="#1792FF"/>
<stop offset="1" stop-color="#7C2DFB"/>
</linearGradient>
<linearGradient id="paint20_linear_92_976" x1="31.2009" y1="-8.15115" x2="71.1781" y2="57.8758" gradientUnits="userSpaceOnUse">
<stop stop-color="#18FFD9"/>
<stop offset="0.494" stop-color="#1792FF"/>
<stop offset="1" stop-color="#7C2DFB"/>
</linearGradient>
<linearGradient id="paint21_linear_92_976" x1="35.5449" y1="-10.7813" x2="75.5222" y2="55.2459" gradientUnits="userSpaceOnUse">
<stop stop-color="#18FFD9"/>
<stop offset="0.494" stop-color="#1792FF"/>
<stop offset="1" stop-color="#7C2DFB"/>
</linearGradient>
<linearGradient id="paint22_linear_92_976" x1="35.7575" y1="-10.91" x2="75.7346" y2="55.117" gradientUnits="userSpaceOnUse">
<stop stop-color="#18FFD9"/>
<stop offset="0.494" stop-color="#1792FF"/>
<stop offset="1" stop-color="#7C2DFB"/>
</linearGradient>
<linearGradient id="paint23_linear_92_976" x1="26.9965" y1="-5.6056" x2="66.9738" y2="60.4218" gradientUnits="userSpaceOnUse">
<stop stop-color="#18FFD9"/>
<stop offset="0.494" stop-color="#1792FF"/>
<stop offset="1" stop-color="#7C2DFB"/>
</linearGradient>
<linearGradient id="paint24_linear_92_976" x1="26.0934" y1="-5.05873" x2="66.0705" y2="60.9682" gradientUnits="userSpaceOnUse">
<stop stop-color="#18FFD9"/>
<stop offset="0.494" stop-color="#1792FF"/>
<stop offset="1" stop-color="#7C2DFB"/>
</linearGradient>
<linearGradient id="paint25_linear_92_976" x1="24.5386" y1="-4.1174" x2="64.5159" y2="61.9097" gradientUnits="userSpaceOnUse">
<stop stop-color="#18FFD9"/>
<stop offset="0.494" stop-color="#1792FF"/>
<stop offset="1" stop-color="#7C2DFB"/>
</linearGradient>
<linearGradient id="paint26_linear_92_976" x1="18.5117" y1="-0.468261" x2="58.4891" y2="65.5591" gradientUnits="userSpaceOnUse">
<stop stop-color="#18FFD9"/>
<stop offset="0.494" stop-color="#1792FF"/>
<stop offset="1" stop-color="#7C2DFB"/>
</linearGradient>
<linearGradient id="paint27_linear_92_976" x1="14.5065" y1="1.9568" x2="54.4834" y2="67.9834" gradientUnits="userSpaceOnUse">
<stop stop-color="#18FFD9"/>
<stop offset="0.494" stop-color="#1792FF"/>
<stop offset="1" stop-color="#7C2DFB"/>
</linearGradient>
<linearGradient id="paint28_linear_92_976" x1="41.5365" y1="-14.4089" x2="81.5133" y2="51.6176" gradientUnits="userSpaceOnUse">
<stop stop-color="#18FFD9"/>
<stop offset="0.494" stop-color="#1792FF"/>
<stop offset="1" stop-color="#7C2DFB"/>
</linearGradient>
<linearGradient id="paint29_linear_92_976" x1="40.817" y1="-13.9733" x2="80.7941" y2="52.0536" gradientUnits="userSpaceOnUse">
<stop stop-color="#18FFD9"/>
<stop offset="0.494" stop-color="#1792FF"/>
<stop offset="1" stop-color="#7C2DFB"/>
</linearGradient>
<linearGradient id="paint30_linear_92_976" x1="30.557" y1="-7.76122" x2="70.5339" y2="58.2654" gradientUnits="userSpaceOnUse">
<stop stop-color="#18FFD9"/>
<stop offset="0.494" stop-color="#1792FF"/>
<stop offset="1" stop-color="#7C2DFB"/>
</linearGradient>
<linearGradient id="paint31_linear_92_976" x1="29.5354" y1="-7.14278" x2="69.5125" y2="58.8841" gradientUnits="userSpaceOnUse">
<stop stop-color="#18FFD9"/>
<stop offset="0.494" stop-color="#1792FF"/>
<stop offset="1" stop-color="#7C2DFB"/>
</linearGradient>
<linearGradient id="paint32_linear_92_976" x1="35.2201" y1="-10.5846" x2="75.1971" y2="55.4422" gradientUnits="userSpaceOnUse">
<stop stop-color="#18FFD9"/>
<stop offset="0.494" stop-color="#1792FF"/>
<stop offset="1" stop-color="#7C2DFB"/>
</linearGradient>
<linearGradient id="paint33_linear_92_976" x1="33.456" y1="-9.51655" x2="73.4331" y2="56.5104" gradientUnits="userSpaceOnUse">
<stop stop-color="#18FFD9"/>
<stop offset="0.494" stop-color="#1792FF"/>
<stop offset="1" stop-color="#7C2DFB"/>
</linearGradient>
<linearGradient id="paint34_linear_92_976" x1="18.3054" y1="-0.343463" x2="58.2826" y2="65.6835" gradientUnits="userSpaceOnUse">
<stop stop-color="#18FFD9"/>
<stop offset="0.494" stop-color="#1792FF"/>
<stop offset="1" stop-color="#7C2DFB"/>
</linearGradient>
<linearGradient id="paint35_linear_92_976" x1="16.6983" y1="0.629662" x2="56.6754" y2="66.6564" gradientUnits="userSpaceOnUse">
<stop stop-color="#18FFD9"/>
<stop offset="0.494" stop-color="#1792FF"/>
<stop offset="1" stop-color="#7C2DFB"/>
</linearGradient>
<linearGradient id="paint36_linear_92_976" x1="16.2018" y1="0.930302" x2="56.1788" y2="66.9569" gradientUnits="userSpaceOnUse">
<stop stop-color="#18FFD9"/>
<stop offset="0.494" stop-color="#1792FF"/>
<stop offset="1" stop-color="#7C2DFB"/>
</linearGradient>
<linearGradient id="paint37_linear_92_976" x1="14.5912" y1="1.90547" x2="54.5682" y2="67.9322" gradientUnits="userSpaceOnUse">
<stop stop-color="#18FFD9"/>
<stop offset="0.494" stop-color="#1792FF"/>
<stop offset="1" stop-color="#7C2DFB"/>
</linearGradient>
<linearGradient id="paint38_linear_92_976" x1="6.20451" y1="6.98325" x2="46.182" y2="73.0107" gradientUnits="userSpaceOnUse">
<stop stop-color="#18FFD9"/>
<stop offset="0.494" stop-color="#1792FF"/>
<stop offset="1" stop-color="#7C2DFB"/>
</linearGradient>
<linearGradient id="paint39_linear_92_976" x1="1.54652" y1="9.80362" x2="41.5236" y2="75.8304" gradientUnits="userSpaceOnUse">
<stop stop-color="#18FFD9"/>
<stop offset="0.494" stop-color="#1792FF"/>
<stop offset="1" stop-color="#7C2DFB"/>
</linearGradient>
<linearGradient id="paint40_linear_92_976" x1="2.081" y1="9.47996" x2="42.058" y2="75.5068" gradientUnits="userSpaceOnUse">
<stop stop-color="#18FFD9"/>
<stop offset="0.494" stop-color="#1792FF"/>
<stop offset="1" stop-color="#7C2DFB"/>
</linearGradient>
<linearGradient id="paint41_linear_92_976" x1="0.332872" y1="10.5384" x2="40.3099" y2="76.5653" gradientUnits="userSpaceOnUse">
<stop stop-color="#18FFD9"/>
<stop offset="0.494" stop-color="#1792FF"/>
<stop offset="1" stop-color="#7C2DFB"/>
</linearGradient>
<linearGradient id="paint42_linear_92_976" x1="-7.14081" y1="15.0634" x2="32.8363" y2="81.0903" gradientUnits="userSpaceOnUse">
<stop stop-color="#18FFD9"/>
<stop offset="0.494" stop-color="#1792FF"/>
<stop offset="1" stop-color="#7C2DFB"/>
</linearGradient>
<linearGradient id="paint43_linear_92_976" x1="37.2321" y1="-11.8028" x2="77.2094" y2="54.2243" gradientUnits="userSpaceOnUse">
<stop stop-color="#18FFD9"/>
<stop offset="0.494" stop-color="#1792FF"/>
<stop offset="1" stop-color="#7C2DFB"/>
</linearGradient>
<linearGradient id="paint44_linear_92_976" x1="33.5354" y1="-9.56452" x2="73.5125" y2="56.4623" gradientUnits="userSpaceOnUse">
<stop stop-color="#18FFD9"/>
<stop offset="0.494" stop-color="#1792FF"/>
<stop offset="1" stop-color="#7C2DFB"/>
</linearGradient>
<linearGradient id="paint45_linear_92_976" x1="22.7695" y1="-3.04615" x2="62.7465" y2="62.9807" gradientUnits="userSpaceOnUse">
<stop stop-color="#18FFD9"/>
<stop offset="0.494" stop-color="#1792FF"/>
<stop offset="1" stop-color="#7C2DFB"/>
</linearGradient>
<linearGradient id="paint46_linear_92_976" x1="20.5776" y1="-1.71908" x2="60.5547" y2="64.3078" gradientUnits="userSpaceOnUse">
<stop stop-color="#18FFD9"/>
<stop offset="0.494" stop-color="#1792FF"/>
<stop offset="1" stop-color="#7C2DFB"/>
</linearGradient>
<linearGradient id="paint47_linear_92_976" x1="24.3665" y1="-4.01298" x2="64.3432" y2="62.0134" gradientUnits="userSpaceOnUse">
<stop stop-color="#18FFD9"/>
<stop offset="0.494" stop-color="#1792FF"/>
<stop offset="1" stop-color="#7C2DFB"/>
</linearGradient>
<linearGradient id="paint48_linear_92_976" x1="21.1308" y1="-2.05403" x2="61.1079" y2="63.9728" gradientUnits="userSpaceOnUse">
<stop stop-color="#18FFD9"/>
<stop offset="0.494" stop-color="#1792FF"/>
<stop offset="1" stop-color="#7C2DFB"/>
</linearGradient>
<linearGradient id="paint49_linear_92_976" x1="7.76709" y1="6.03719" x2="47.7442" y2="72.0642" gradientUnits="userSpaceOnUse">
<stop stop-color="#18FFD9"/>
<stop offset="0.494" stop-color="#1792FF"/>
<stop offset="1" stop-color="#7C2DFB"/>
</linearGradient>
<linearGradient id="paint50_linear_92_976" x1="6.28263" y1="6.93608" x2="46.2596" y2="72.9628" gradientUnits="userSpaceOnUse">
<stop stop-color="#18FFD9"/>
<stop offset="0.494" stop-color="#0060FE"/>
<stop offset="1" stop-color="#7C2DFB"/>
</linearGradient>
<linearGradient id="paint51_linear_92_976" x1="3.77117" y1="8.45664" x2="43.7483" y2="74.4836" gradientUnits="userSpaceOnUse">
<stop stop-color="#18FFD9"/>
<stop offset="0.494" stop-color="#1792FF"/>
<stop offset="1" stop-color="#7C2DFB"/>
</linearGradient>
<linearGradient id="paint52_linear_92_976" x1="2.86824" y1="9.00322" x2="42.8454" y2="75.0302" gradientUnits="userSpaceOnUse">
<stop stop-color="#18FFD9"/>
<stop offset="0.494" stop-color="#1792FF"/>
<stop offset="1" stop-color="#7C2DFB"/>
</linearGradient>
<linearGradient id="paint53_linear_92_976" x1="-9.21754" y1="16.3209" x2="30.7594" y2="82.3476" gradientUnits="userSpaceOnUse">
<stop stop-color="#18FFD9"/>
<stop offset="0.494" stop-color="#1792FF"/>
<stop offset="1" stop-color="#7C2DFB"/>
</linearGradient>
<linearGradient id="paint54_linear_92_976" x1="-10.0834" y1="16.8452" x2="29.8936" y2="82.8719" gradientUnits="userSpaceOnUse">
<stop stop-color="#18FFD9"/>
<stop offset="0.494" stop-color="#1792FF"/>
<stop offset="1" stop-color="#7C2DFB"/>
</linearGradient>
<linearGradient id="paint55_linear_92_976" x1="-8.20793" y1="15.7096" x2="31.7691" y2="81.7363" gradientUnits="userSpaceOnUse">
<stop stop-color="#18FFD9"/>
<stop offset="0.494" stop-color="#1792FF"/>
<stop offset="1" stop-color="#7C2DFB"/>
</linearGradient>
<linearGradient id="paint56_linear_92_976" x1="-7.91864" y1="15.5345" x2="32.0584" y2="81.5613" gradientUnits="userSpaceOnUse">
<stop stop-color="#18FFD9"/>
<stop offset="0.494" stop-color="#1792FF"/>
<stop offset="1" stop-color="#7C2DFB"/>
</linearGradient>
<linearGradient id="paint57_linear_92_976" x1="-14.6154" y1="19.589" x2="25.3615" y2="85.6157" gradientUnits="userSpaceOnUse">
<stop stop-color="#18FFD9"/>
<stop offset="0.494" stop-color="#1792FF"/>
<stop offset="1" stop-color="#7C2DFB"/>
</linearGradient>
<linearGradient id="paint58_linear_92_976" x1="-14.1565" y1="19.3113" x2="25.8205" y2="85.3381" gradientUnits="userSpaceOnUse">
<stop stop-color="#18FFD9"/>
<stop offset="0.494" stop-color="#1792FF"/>
<stop offset="1" stop-color="#7C2DFB"/>
</linearGradient>
<linearGradient id="paint59_linear_92_976" x1="20.9927" y1="-1.97027" x2="60.9697" y2="64.0566" gradientUnits="userSpaceOnUse">
<stop stop-color="#18FFD9"/>
<stop offset="0.494" stop-color="#1792FF"/>
<stop offset="1" stop-color="#7C2DFB"/>
</linearGradient>
<linearGradient id="paint60_linear_92_976" x1="14.8316" y1="1.75984" x2="54.8088" y2="67.7868" gradientUnits="userSpaceOnUse">
<stop stop-color="#18FFD9"/>
<stop offset="0.494" stop-color="#1792FF"/>
<stop offset="1" stop-color="#7C2DFB"/>
</linearGradient>
<linearGradient id="paint61_linear_92_976" x1="10.58" y1="4.33411" x2="50.5569" y2="70.3607" gradientUnits="userSpaceOnUse">
<stop stop-color="#18FFD9"/>
<stop offset="0.494" stop-color="#1792FF"/>
<stop offset="1" stop-color="#7C2DFB"/>
</linearGradient>
<linearGradient id="paint62_linear_92_976" x1="8.56485" y1="5.55425" x2="48.5419" y2="71.5811" gradientUnits="userSpaceOnUse">
<stop stop-color="#18FFD9"/>
<stop offset="0.494" stop-color="#1792FF"/>
<stop offset="1" stop-color="#7C2DFB"/>
</linearGradient>
<linearGradient id="paint63_linear_92_976" x1="8.50911" y1="5.58815" x2="48.4861" y2="71.6148" gradientUnits="userSpaceOnUse">
<stop stop-color="#18FFD9"/>
<stop offset="0.494" stop-color="#1792FF"/>
<stop offset="1" stop-color="#7C2DFB"/>
</linearGradient>
<linearGradient id="paint64_linear_92_976" x1="4.29788" y1="8.13766" x2="44.2749" y2="74.1643" gradientUnits="userSpaceOnUse">
<stop stop-color="#18FFD9"/>
<stop offset="0.494" stop-color="#1792FF"/>
<stop offset="1" stop-color="#7C2DFB"/>
</linearGradient>
<linearGradient id="paint65_linear_92_976" x1="0.88883" y1="10.202" x2="40.8658" y2="76.2288" gradientUnits="userSpaceOnUse">
<stop stop-color="#18FFD9"/>
<stop offset="0.494" stop-color="#1792FF"/>
<stop offset="1" stop-color="#7C2DFB"/>
</linearGradient>
<linearGradient id="paint66_linear_92_976" x1="0.35883" y1="10.5227" x2="40.3358" y2="76.5494" gradientUnits="userSpaceOnUse">
<stop stop-color="#18FFD9"/>
<stop offset="0.494" stop-color="#1792FF"/>
<stop offset="1" stop-color="#7C2DFB"/>
</linearGradient>
<linearGradient id="paint67_linear_92_976" x1="-3.21509" y1="12.6865" x2="36.7618" y2="78.7131" gradientUnits="userSpaceOnUse">
<stop stop-color="#18FFD9"/>
<stop offset="0.494" stop-color="#1792FF"/>
<stop offset="1" stop-color="#7C2DFB"/>
</linearGradient>
<linearGradient id="paint68_linear_92_976" x1="-3.04258" y1="12.582" x2="36.9346" y2="78.609" gradientUnits="userSpaceOnUse">
<stop stop-color="#18FFD9"/>
<stop offset="0.494" stop-color="#1792FF"/>
<stop offset="1" stop-color="#7C2DFB"/>
</linearGradient>
<linearGradient id="paint69_linear_92_976" x1="-12.6538" y1="18.4013" x2="27.3233" y2="84.4281" gradientUnits="userSpaceOnUse">
<stop stop-color="#18FFD9"/>
<stop offset="0.494" stop-color="#1792FF"/>
<stop offset="1" stop-color="#7C2DFB"/>
</linearGradient>
<linearGradient id="paint70_linear_92_976" x1="-10.4057" y1="17.0403" x2="29.5713" y2="83.0671" gradientUnits="userSpaceOnUse">
<stop stop-color="#18FFD9"/>
<stop offset="0.494" stop-color="#1792FF"/>
<stop offset="1" stop-color="#7C2DFB"/>
</linearGradient>
<linearGradient id="paint71_linear_92_976" x1="-6.54619" y1="14.7033" x2="33.4311" y2="80.7305" gradientUnits="userSpaceOnUse">
<stop stop-color="#18FFD9"/>
<stop offset="0.494" stop-color="#1792FF"/>
<stop offset="1" stop-color="#7C2DFB"/>
</linearGradient>
<linearGradient id="paint72_linear_92_976" x1="-3.55305" y1="12.8913" x2="36.424" y2="78.9181" gradientUnits="userSpaceOnUse">
<stop stop-color="#18FFD9"/>
<stop offset="0.494" stop-color="#1792FF"/>
<stop offset="1" stop-color="#7C2DFB"/>
</linearGradient>
<linearGradient id="paint73_linear_92_976" x1="-9.34859" y1="16.4002" x2="30.6285" y2="82.4272" gradientUnits="userSpaceOnUse">
<stop stop-color="#18FFD9"/>
<stop offset="0.494" stop-color="#1792FF"/>
<stop offset="1" stop-color="#7C2DFB"/>
</linearGradient>
<linearGradient id="paint74_linear_92_976" x1="-3.76455" y1="13.0191" x2="36.2125" y2="79.046" gradientUnits="userSpaceOnUse">
<stop stop-color="#18FFD9"/>
<stop offset="0.494" stop-color="#1792FF"/>
<stop offset="1" stop-color="#7C2DFB"/>
</linearGradient>
</defs>
</svg>
